<svg xmlns="http://www.w3.org/2000/svg" viewBox="0 0 100 100"><rect width="100" height="100" rx="22" fill="#0B0B0D"/><path d="M56.45,47.85 C66.96,56.58 77.34,43.96 83.41,55.58" fill="none" stroke="#C9C9CF" stroke-width="2.6" stroke-linecap="round"/><path d="M55.35,50.05 C62.94,62.70 78.17,55.42 80.32,68.97" fill="none" stroke="#C9C9CF" stroke-width="2.6" stroke-linecap="round"/><path d="M53.53,51.71 C56.51,67.00 73.84,66.51 71.29,80.46" fill="none" stroke="#C9C9CF" stroke-width="2.6" stroke-linecap="round"/><path d="M51.23,52.59 C48.59,68.41 65.02,74.69 57.67,87.12" fill="none" stroke="#C9C9CF" stroke-width="2.6" stroke-linecap="round"/><path d="M48.77,52.59 C40.60,66.39 53.66,78.17 42.33,87.12" fill="none" stroke="#C9C9CF" stroke-width="2.6" stroke-linecap="round"/><path d="M46.47,51.71 C34.13,61.22 42.32,76.49 28.71,80.46" fill="none" stroke="#C9C9CF" stroke-width="2.6" stroke-linecap="round"/><path d="M44.65,50.05 C30.42,53.93 33.30,70.57 19.68,68.97" fill="none" stroke="#C9C9CF" stroke-width="2.6" stroke-linecap="round"/><path d="M43.55,47.85 C30.01,46.01 27.90,62.22 16.59,55.58" fill="none" stroke="#C9C9CF" stroke-width="2.6" stroke-linecap="round"/><circle cx="50" cy="46" r="8.6" fill="none" stroke="#7C7C86" stroke-width="1.6"/><circle cx="50" cy="46" r="4.2" fill="#8FD6D0"/><circle cx="83.41" cy="55.58" r="2" fill="#C9C9CF"/><circle cx="80.32" cy="68.97" r="2" fill="#C9C9CF"/><circle cx="71.29" cy="80.46" r="2" fill="#C9C9CF"/><circle cx="57.67" cy="87.12" r="2" fill="#C9C9CF"/><circle cx="42.33" cy="87.12" r="2" fill="#C9C9CF"/><circle cx="28.71" cy="80.46" r="2" fill="#C9C9CF"/><circle cx="19.68" cy="68.97" r="2" fill="#C9C9CF"/><circle cx="16.59" cy="55.58" r="2" fill="#C9C9CF"/></svg>
